<svg xmlns="http://www.w3.org/2000/svg" xmlns:xlink="http://www.w3.org/1999/xlink" width="170" height="155" viewBox="0 0 170 155">
    <defs>
        <path id="a" d="M.139.086h41.747V40.93H.139z"/>
        <path id="c" d="M.21.086h57.644V40.93H.21z"/>
        <path id="e" d="M0 94h146V0H0z"/>
    </defs>
    <g fill="none" fill-rule="evenodd" transform="translate(18 61)">
        <g transform="translate(75)">
            <mask id="b" fill="#fff">
                <use xlink:href="#a"/>
            </mask>
            <path fill="#1F75BA" d="M19.132 40.93c-.278 0-.687-.082-1.053-.467l-6.987-7.037a2.448 2.448 0 0 0-1.246-.704l-.051-.012H1.799c-.915 0-1.66-.767-1.66-1.711v-7.49c0-1.025.304-2.12 1.155-2.12.411 0 .878.217 1.313.612 1.428 1.3 3.188 2.016 4.956 2.016 3.821 0 6.616-3.105 6.795-7.552l.002-.043v-.079c-.18-4.46-2.975-7.565-6.796-7.565-1.767 0-3.526.716-4.956 2.017-.434.395-.9.612-1.313.612-.85 0-1.154-1.096-1.155-2.121V1.798C.14.854.885.086 1.8.086h38.426c.915 0 1.66.768 1.66 1.712l-.002 29.2c0 .944-.744 1.712-1.66 1.712H22.99c-1.397.08-2.35 1.586-2.35 2.89v3.786a1.51 1.51 0 0 1-1.508 1.543" mask="url(#b)"/>
        </g>
        <g transform="translate(30)">
            <mask id="d" fill="#fff">
                <use xlink:href="#c"/>
            </mask>
            <path fill="#28A6DE" d="M23.675 40.93c-.759 0-1.543-.578-1.543-1.544V35.6c0-1.304-.977-2.81-2.378-2.889H1.91c-.937 0-1.7-.769-1.7-1.713v-29.2C.21.854.973.086 1.91.086h39.688c.938 0 1.7.768 1.7 1.712v7.489c.002 2.943 1.662 4.26 3.306 4.26.94 0 1.917-.408 2.75-1.148 1.075-.955 2.377-1.481 3.667-1.481 2.288 0 4.668 1.695 4.833 5.48-.165 3.786-2.544 5.48-4.832 5.48-1.29 0-2.593-.525-3.668-1.481-.832-.74-1.81-1.148-2.75-1.148-1.644 0-3.304 1.318-3.306 4.26v7.489c0 .944-.762 1.712-1.7 1.712h-8.366l-.053.012c-.49.106-.933.353-1.282.712l-7.137 7.02c-.383.394-.8.475-1.085.475" mask="url(#d)"/>
        </g>
        <path fill="#FFF" d="M98 15a2 2 0 1 1-4 0 2 2 0 0 1 4 0M106 15a2 2 0 1 1-4 0 2 2 0 0 1 4 0M112 15a2 2 0 1 1-4 0 2 2 0 0 1 4 0M48 15a2 2 0 1 1-4 0 2 2 0 0 1 4 0M55 15a2 2 0 1 1-4 0 2 2 0 0 1 4 0M61 15a2 2 0 1 1-4 0 2 2 0 0 1 4 0"/>
        <path fill="#66318D" d="M91.317 83c-2.395 0-4.646-1.296-6.258-3.605l-9.99-11.66a4.457 4.457 0 0 1 .451-6.249 4.367 4.367 0 0 1 6.196.455l9.41 10.985 6.6-12.568a4.374 4.374 0 0 1 5.936-1.842c2.144 1.145 2.962 3.826 1.827 5.988L98.293 78.21c-1.526 2.908-3.95 4.65-6.651 4.783a7.141 7.141 0 0 1-.325.008z"/>
        <mask id="f" fill="#fff">
            <use xlink:href="#e"/>
        </mask>
        <path fill="#66318D" d="M101 94h28V59h-28z" mask="url(#f)"/>
        <path fill="#28A6DE" d="M115.465 61a13.41 13.41 0 0 1-9.536-3.978A13.415 13.415 0 0 1 102 47.464C102.02 40.04 108.075 34 115.5 34c7.478.02 13.52 6.09 13.5 13.534C128.98 54.959 122.925 61 115.5 61h-.035z" mask="url(#f)"/>
        <path fill="#FFF" d="M116 32h-.001C107.75 32 101.02 38.712 101 46.96a14.904 14.904 0 0 0 4.366 10.62A14.9 14.9 0 0 0 115.96 62h.04c8.249 0 14.978-6.712 14.999-14.962.021-8.27-6.69-15.017-14.961-15.038h-.04zm0 3.498h.03c6.352.016 11.488 5.18 11.472 11.531-.017 6.344-5.164 11.473-11.501 11.473h-.03c-6.353-.016-11.49-5.178-11.473-11.533.017-6.34 5.163-11.47 11.501-11.471z" mask="url(#f)"/>
        <path fill="#FFF" d="M110 52c1.212 2.391 3.442 4 6 4s4.788-1.609 6-4h-12z" mask="url(#f)"/>
        <path fill="#66318D" d="M136.986 94H146l-11.87-32.184c-.836-2.266-3.27-3.394-5.437-2.52-2.167.874-3.246 3.418-2.41 5.684L136.986 94z" mask="url(#f)"/>
        <path fill="#293C8E" d="M16 94h28V59H16z" mask="url(#f)"/>
        <path fill="#1F75BA" d="M30.465 61a13.411 13.411 0 0 1-9.536-3.978A13.415 13.415 0 0 1 17 47.464C17.02 40.04 23.075 34 30.5 34c7.478.019 13.519 6.09 13.5 13.534C43.98 54.959 37.925 61 30.5 61h-.035z" mask="url(#f)"/>
        <path fill="#FFF" d="M31 34h-.001C22.749 34 16.022 40.712 16 48.96a14.903 14.903 0 0 0 4.366 10.62A14.9 14.9 0 0 0 30.961 64h.04C39.25 64 45.978 57.288 46 49.038c.02-8.27-6.69-15.017-14.961-15.038h-.04zm0 3.498h.03c6.351.016 11.488 5.18 11.472 11.53-.017 6.345-5.164 11.474-11.501 11.474h-.03c-6.354-.016-11.49-5.178-11.473-11.533.017-6.34 5.163-11.47 11.501-11.471z" mask="url(#f)"/>
        <path fill="#FFF" d="M26 54c1.212 2.39 3.442 4 6 4s4.789-1.61 6-4H26z" mask="url(#f)"/>
        <path fill="#293C8E" d="M51.986 94H61L49.13 61.816c-.836-2.266-3.27-3.394-5.437-2.52-2.167.874-3.246 3.419-2.41 5.684L51.986 94zM9.014 94H0l11.87-32.184c.836-2.266 3.27-3.394 5.437-2.52 2.167.874 3.246 3.419 2.41 5.684L9.014 94z" mask="url(#f)"/>
    </g>
</svg>
