<?xml version="1.0" encoding="UTF-8"?>
<svg width="798px" height="348px" viewBox="0 0 798 348" version="1.1" xmlns="http://www.w3.org/2000/svg" xmlns:xlink="http://www.w3.org/1999/xlink">
    <!-- Generator: Sketch 55.2 (78181) - https://sketchapp.com -->
    <title>bg_active</title>
    <desc>Created with Sketch.</desc>
    <g id="Регистрация-/-Авторизация" stroke="none" stroke-width="1" fill="none" fill-rule="evenodd" opacity="0.300000012">
        <g id="registration__Desktop-[stage-1]" transform="translate(0.000000, -676.000000)" fill-rule="nonzero">
            <g id="bg_active" transform="translate(399.000000, 850.000000) scale(-1, 1) translate(-399.000000, -850.000000) translate(0.000000, 676.000000)">
                <path d="M257.5,195 C274.89697,195 289,180.673112 289,163 C289,145.326888 274.89697,131 257.5,131 C240.10303,131 226,145.326888 226,163 C226,180.673112 240.10303,195 257.5,195 Z M257.5,187.888889 C243.969024,187.888889 233,176.745754 233,163 C233,149.254246 243.969024,138.111111 257.5,138.111111 C271.030976,138.111111 282,149.254246 282,163 C282,176.745754 271.030976,187.888889 257.5,187.888889 Z" id="Oval-15" fill="#0078AD"></path>
                <path d="M287.5,348 C299.374122,348 309,338.374122 309,326.5 C309,314.625878 299.374122,305 287.5,305 C275.625878,305 266,314.625878 266,326.5 C266,338.374122 275.625878,348 287.5,348 Z M287.5,344.416667 C277.604898,344.416667 269.583333,336.395102 269.583333,326.5 C269.583333,316.604898 277.604898,308.583333 287.5,308.583333 C297.395102,308.583333 305.416667,316.604898 305.416667,326.5 C305.416667,336.395102 297.395102,344.416667 287.5,344.416667 Z" id="Oval-15-Copy-2" fill="#0078AD"></path>
                <path d="M636.5,281 C648.374122,281 658,271.374122 658,259.5 C658,247.625878 648.374122,238 636.5,238 C624.625878,238 615,247.625878 615,259.5 C615,271.374122 624.625878,281 636.5,281 Z M636.5,277.416667 C626.604898,277.416667 618.583333,269.395102 618.583333,259.5 C618.583333,249.604898 626.604898,241.583333 636.5,241.583333 C646.395102,241.583333 654.416667,249.604898 654.416667,259.5 C654.416667,269.395102 646.395102,277.416667 636.5,277.416667 Z" id="Oval-15-Copy-3" fill="#0078AD"></path>
                <path d="M735.5,128 C744.060414,128 751,121.060414 751,112.5 C751,103.939586 744.060414,97 735.5,97 C726.939586,97 720,103.939586 720,112.5 C720,121.060414 726.939586,128 735.5,128 Z M735.5,121.111111 C730.744215,121.111111 726.888889,117.255785 726.888889,112.5 C726.888889,107.744215 730.744215,103.888889 735.5,103.888889 C740.255785,103.888889 744.111111,107.744215 744.111111,112.5 C744.111111,117.255785 740.255785,121.111111 735.5,121.111111 Z" id="Oval-15-Copy-6" fill="#0078AD"></path>
                <path d="M551,336 C566.463973,336 579,323.463973 579,308 C579,292.536027 566.463973,280 551,280 C535.536027,280 523,292.536027 523,308 C523,323.463973 535.536027,336 551,336 Z M551,329 C539.40202,329 530,319.59798 530,308 C530,296.40202 539.40202,287 551,287 C562.59798,287 572,296.40202 572,308 C572,319.59798 562.59798,329 551,329 Z" id="Oval-15-Copy-5" fill="#B22FD6"></path>
                <path d="M589.5,185 C594.19442,185 598,181.19442 598,176.5 C598,171.80558 594.19442,168 589.5,168 C584.80558,168 581,171.80558 581,176.5 C581,181.19442 584.80558,185 589.5,185 Z M589.5,181.6 C586.683348,181.6 584.4,179.316652 584.4,176.5 C584.4,173.683348 586.683348,171.4 589.5,171.4 C592.316652,171.4 594.6,173.683348 594.6,176.5 C594.6,179.316652 592.316652,181.6 589.5,181.6 Z" id="Oval-15-Copy-4" fill="#0078AD"></path>
                <path d="M138,265 C145.731986,265 152,258.731986 152,251 C152,243.268014 145.731986,237 138,237 C130.268014,237 124,243.268014 124,251 C124,258.731986 130.268014,265 138,265 Z M138,258 C134.134007,258 131,254.865993 131,251 C131,247.134007 134.134007,244 138,244 C141.865993,244 145,247.134007 145,251 C145,254.865993 141.865993,258 138,258 Z" id="Oval-15-Copy" fill="#B22FD6"></path>
                <polygon id="Line-20" fill="#B22FD6" points="2.46298546 216 60 158.462985 57.5370145 156 0 213.537015"></polygon>
                <polygon id="Line-21" fill="#E34257" points="756.47033 265 798 223.47033 795.52967 221 754 262.52967"></polygon>
                <polygon id="Line-22" fill="#8B9398" points="184.548355 325 207 302.548355 204.451645 300 182 322.451645"></polygon>
                <polygon id="Line-23" fill="#C6CACF" points="341.5 55 394 2.5 391.5 0 339 52.5"></polygon>
            </g>
        </g>
    </g>
</svg>