<?xml version="1.0" encoding="UTF-8"?>
<svg width="683px" height="298px" viewBox="0 0 683 298" version="1.1" xmlns="http://www.w3.org/2000/svg" xmlns:xlink="http://www.w3.org/1999/xlink">
    <!-- Generator: Sketch 55.2 (78181) - https://sketchapp.com -->
    <title>bg_active copy</title>
    <desc>Created with Sketch.</desc>
    <g id="Регистрация-/-Авторизация" stroke="none" stroke-width="1" fill="none" fill-rule="evenodd" opacity="0.300000012">
        <g id="registration__Desktop-[stage-1]" transform="translate(-757.000000, 0.000000)" fill-rule="nonzero">
            <g id="bg_active-copy" transform="translate(1098.500000, 149.000000) scale(-1, 1) translate(-1098.500000, -149.000000) translate(757.000000, 0.000000)">
                <path d="M220.5,167 C235.687831,167 248,154.687831 248,139.5 C248,124.312169 235.687831,112 220.5,112 C205.312169,112 193,124.312169 193,139.5 C193,154.687831 205.312169,167 220.5,167 Z M220.5,160.888889 C208.687243,160.888889 199.111111,151.312757 199.111111,139.5 C199.111111,127.687243 208.687243,118.111111 220.5,118.111111 C232.312757,118.111111 241.888889,127.687243 241.888889,139.5 C241.888889,151.312757 232.312757,160.888889 220.5,160.888889 Z" id="Oval-15" fill="#0078AD"></path>
                <path d="M246,298 C255.941125,298 264,289.941125 264,280 C264,270.058875 255.941125,262 246,262 C236.058875,262 228,270.058875 228,280 C228,289.941125 236.058875,298 246,298 Z M246,295 C237.715729,295 231,288.284271 231,280 C231,271.715729 237.715729,265 246,265 C254.284271,265 261,271.715729 261,280 C261,288.284271 254.284271,295 246,295 Z" id="Oval-15-Copy-2" fill="#0078AD"></path>
                <path d="M545,241 C554.941125,241 563,232.941125 563,223 C563,213.058875 554.941125,205 545,205 C535.058875,205 527,213.058875 527,223 C527,232.941125 535.058875,241 545,241 Z M545,238 C536.715729,238 530,231.284271 530,223 C530,214.715729 536.715729,208 545,208 C553.284271,208 560,214.715729 560,223 C560,231.284271 553.284271,238 545,238 Z" id="Oval-15-Copy-3" fill="#0078AD"></path>
                <path d="M629,110 C636.179702,110 642,104.179702 642,97 C642,89.8202983 636.179702,84 629,84 C621.820298,84 616,89.8202983 616,97 C616,104.179702 621.820298,110 629,110 Z M629,104.222222 C625.011277,104.222222 621.777778,100.988723 621.777778,97 C621.777778,93.0112768 625.011277,89.7777778 629,89.7777778 C632.988723,89.7777778 636.222222,93.0112768 636.222222,97 C636.222222,100.988723 632.988723,104.222222 629,104.222222 Z" id="Oval-15-Copy-6" fill="#0078AD"></path>
                <path d="M471.5,288 C484.478692,288 495,277.478692 495,264.5 C495,251.521308 484.478692,241 471.5,241 C458.521308,241 448,251.521308 448,264.5 C448,277.478692 458.521308,288 471.5,288 Z M471.5,282.125 C461.765981,282.125 453.875,274.234019 453.875,264.5 C453.875,254.765981 461.765981,246.875 471.5,246.875 C481.234019,246.875 489.125,254.765981 489.125,264.5 C489.125,274.234019 481.234019,282.125 471.5,282.125 Z" id="Oval-15-Copy-5" fill="#B22FD6"></path>
                <path d="M504.5,158 C508.642136,158 512,154.642136 512,150.5 C512,146.357864 508.642136,143 504.5,143 C500.357864,143 497,146.357864 497,150.5 C497,154.642136 500.357864,158 504.5,158 Z M504.5,155 C502.014719,155 500,152.985281 500,150.5 C500,148.014719 502.014719,146 504.5,146 C506.985281,146 509,148.014719 509,150.5 C509,152.985281 506.985281,155 504.5,155 Z" id="Oval-15-Copy-4" fill="#0078AD"></path>
                <path d="M118,227 C124.627417,227 130,221.627417 130,215 C130,208.372583 124.627417,203 118,203 C111.372583,203 106,208.372583 106,215 C106,221.627417 111.372583,227 118,227 Z M118,221 C114.686292,221 112,218.313708 112,215 C112,211.686292 114.686292,209 118,209 C121.313708,209 124,211.686292 124,215 C124,218.313708 121.313708,221 118,221 Z" id="Oval-15-Copy" fill="#B22FD6"></path>
                <polygon id="Line-20" fill="#B22FD6" points="2.09353764 184 51 135.093538 48.9064624 133 0 181.906462"></polygon>
                <polygon id="Line-21" fill="#E34257" points="648.077323 227 683 192.077323 680.922677 190 646 224.922677"></polygon>
                <polygon id="Line-22" fill="#8B9398" points="158.140618 278 177 259.140618 174.859382 257 156 275.859382"></polygon>
                <polygon id="Line-23" fill="#C6CACF" points="294.090909 47 338 2.13636364 335.909091 0 292 44.8636364"></polygon>
            </g>
        </g>
    </g>
</svg>