<?xml version="1.0" encoding="UTF-8"?>
<svg width="23px" height="21px" viewBox="0 0 23 21" version="1.1" xmlns="http://www.w3.org/2000/svg" xmlns:xlink="http://www.w3.org/1999/xlink">
    <g id="-----Styleguide" stroke="none" stroke-width="1" fill="none" fill-rule="evenodd">
        <g id="Typography" transform="translate(-186.000000, -2751.000000)" fill="#2AA7DF">
            <g id="Group-2-Copy-2" transform="translate(156.000000, 2725.000000)">
                <path d="M50.8553152,36 L47.2838866,36 L47.2838866,33.1428571 C47.2838866,31.5669643 48.5651366,30.2857143 50.1410295,30.2857143 L50.4981723,30.2857143 C51.0919223,30.2857143 51.5696009,29.8080357 51.5696009,29.2142857 L51.5696009,27.0714286 C51.5696009,26.4776786 51.0919223,26 50.4981723,26 L50.1410295,26 C46.1946009,26 42.9981723,29.1964286 42.9981723,33.1428571 L42.9981723,43.8571429 C42.9981723,45.0401786 43.9579938,46 45.1410295,46 L50.8553152,46 C52.0383509,46 52.9981723,45.0401786 52.9981723,43.8571429 L52.9981723,38.1428571 C52.9981723,36.9598214 52.0383509,36 50.8553152,36 Z M38.8571429,36.2094289 L35.2857143,36.2094289 L35.2857143,33.352286 C35.2857143,31.7763932 36.5669643,30.4951432 38.1428571,30.4951432 L38.5,30.4951432 C39.09375,30.4951432 39.5714286,30.0174646 39.5714286,29.4237146 L39.5714286,27.2808574 C39.5714286,26.6871074 39.09375,26.2094289 38.5,26.2094289 L38.1428571,26.2094289 C34.1964286,26.2094289 31,29.4058574 31,33.352286 L31,44.0665717 C31,45.2496074 31.9598214,46.2094289 33.1428571,46.2094289 L38.8571429,46.2094289 C40.0401786,46.2094289 41,45.2496074 41,44.0665717 L41,38.352286 C41,37.1692503 40.0401786,36.2094289 38.8571429,36.2094289 Z" id="Shape-Copy" transform="translate(41.999086, 36.104714) rotate(1.000000) translate(-41.999086, -36.104714) "></path>
            </g>
        </g>
    </g>
</svg>
